<svg id="Layer_1" data-name="Layer 1" xmlns="http://www.w3.org/2000/svg" viewBox="0 0 31.71 30.56"><path d="M16,22.4a5.73,5.73,0,1,1,5.72-5.73A5.73,5.73,0,0,1,16,22.4Zm0-8.57a2.85,2.85,0,1,0,2.84,2.84A2.84,2.84,0,0,0,16,13.83Z" transform="translate(-0.15 -0.72)" fill="#fff"/><path d="M21.42,31.28a3.17,3.17,0,0,1-2.19-.87L17,28.33l-2.6,0-2,1.93a3.19,3.19,0,0,1-4.06.26l-3.6-2.62a3.19,3.19,0,0,1-1-3.94L5,21.19l-.75-2.48L1.81,17.36A3.18,3.18,0,0,1,.3,13.59L1.68,9.35A3.18,3.18,0,0,1,5.12,7.18l3,.39,2.13-1.49.52-2.76A3.17,3.17,0,0,1,13.88.72h4.46a3.18,3.18,0,0,1,3.13,2.6l.55,3,2.07,1.57,2.79-.37a3.18,3.18,0,0,1,3.44,2.17L31.7,13.9a3.19,3.19,0,0,1-1.51,3.78l-2.66,1.44-.84,2.45,1.21,2.54a3.19,3.19,0,0,1-1,3.94l-3.61,2.62A3.17,3.17,0,0,1,21.42,31.28Zm-7-5.92,2.72.05a2.77,2.77,0,0,1,1.87.76l2.23,2.12a.27.27,0,0,0,.33,0l3.61-2.62a.26.26,0,0,0,.08-.32L24,22.78a2.78,2.78,0,0,1-.11-2.1l.88-2.56a2.75,2.75,0,0,1,1.3-1.54l2.71-1.47a.27.27,0,0,0,.12-.31l-1.38-4.24a.26.26,0,0,0-.28-.17l-2.85.37a2.75,2.75,0,0,1-2-.54L20.21,8.59a2.81,2.81,0,0,1-1.05-1.71l-.56-3a.27.27,0,0,0-.26-.21H13.88a.26.26,0,0,0-.25.21l-.52,2.83A2.83,2.83,0,0,1,12,8.45L9.73,10a2.79,2.79,0,0,1-1.94.47l-3-.4a.27.27,0,0,0-.28.18L3.08,14.49a.27.27,0,0,0,.12.31l2.53,1.37A2.77,2.77,0,0,1,7.06,17.8l.79,2.6a2.82,2.82,0,0,1-.15,2L6.37,25.18a.25.25,0,0,0,.08.31l3.61,2.63a.26.26,0,0,0,.33,0l2.08-2A2.79,2.79,0,0,1,14.42,25.36Z" transform="translate(-0.15 -0.72)" fill="#fff"/></svg>