<svg id="Layer_1" data-name="Layer 1" xmlns="http://www.w3.org/2000/svg" viewBox="0 0 29.65 31.59"><path d="M21.06,31.79H11a1.39,1.39,0,0,1-1.4-1.39V18.7A1.4,1.4,0,0,1,11,17.3H21.06a1.4,1.4,0,0,1,1.39,1.4V30.4A1.39,1.39,0,0,1,21.06,31.79ZM12.34,29h7.32V20.1H12.34Z" transform="translate(-1.18 -0.21)" fill="#fff"/><path d="M29.43,31.79H2.57A1.39,1.39,0,0,1,1.18,30.4V16.63a1.36,1.36,0,0,1,.35-.93L15,.65A1.44,1.44,0,0,1,17,.65L30.47,15.7a1.4,1.4,0,0,1,.34,1.15,1.77,1.77,0,0,1,0,.23V30.4A1.39,1.39,0,0,1,29.43,31.79ZM4,29H28V17.16L16,3.68,4,17.16Z" transform="translate(-1.18 -0.21)" fill="#fff"/></svg>